<svg width="16" height="16" viewBox="0 0 16 16" fill="none" xmlns="http://www.w3.org/2000/svg">
<path d="M8 15.2767C7.41818 14.7806 6.78788 14.3954 6.10909 14.1212C5.4303 13.847 4.72727 13.7099 4 13.7099C3.49091 13.7099 2.99091 13.7817 2.5 13.9253C2.00909 14.069 1.53939 14.2713 1.09091 14.5325C0.836364 14.6761 0.590909 14.6696 0.354545 14.5129C0.118182 14.3562 0 14.1277 0 13.8274V4.38717C0 4.24354 0.0333333 4.10644 0.1 3.97587C0.166667 3.8453 0.266667 3.74737 0.4 3.68209C0.957576 3.36872 1.53939 3.13369 2.14545 2.97701C2.75152 2.82032 3.3697 2.74198 4 2.74198C4.70303 2.74198 5.39091 2.83991 6.06364 3.03576C6.73636 3.23162 7.38182 3.5254 8 3.91711V13.3965C8.61818 12.9787 9.26667 12.6653 9.94545 12.4564C10.6242 12.2475 11.3091 12.143 12 12.143C12.4364 12.143 12.8636 12.1822 13.2818 12.2606C13.7 12.3389 14.1212 12.4564 14.5455 12.6131V3.21203C14.7273 3.27732 14.9061 3.34587 15.0818 3.41768C15.2576 3.48949 15.4303 3.57763 15.6 3.68209C15.7333 3.74737 15.8333 3.8453 15.9 3.97587C15.9667 4.10644 16 4.24354 16 4.38717V13.8274C16 14.1277 15.8818 14.3562 15.6455 14.5129C15.4091 14.6696 15.1636 14.6761 14.9091 14.5325C14.4606 14.2713 13.9909 14.069 13.5 13.9253C13.0091 13.7817 12.5091 13.7099 12 13.7099C11.2727 13.7099 10.5697 13.847 9.89091 14.1212C9.21212 14.3954 8.58182 14.7806 8 15.2767ZM9.45455 11.3596V3.91711L13.0909 0V7.83422L9.45455 11.3596ZM6.54545 12.6327V4.8768C6.14545 4.69401 5.7303 4.55364 5.3 4.45572C4.8697 4.35779 4.43636 4.30882 4 4.30882C3.55152 4.30882 3.11515 4.35452 2.69091 4.44592C2.26667 4.53732 1.85455 4.67442 1.45455 4.85722V12.6327C1.87879 12.4629 2.3 12.3389 2.71818 12.2606C3.13636 12.1822 3.56364 12.143 4 12.143C4.43636 12.143 4.86364 12.1822 5.28182 12.2606C5.7 12.3389 6.12121 12.4629 6.54545 12.6327Z" fill="#9F86C0"/>
</svg>
