<svg width="11" height="9" viewBox="0 0 11 9" fill="none" xmlns="http://www.w3.org/2000/svg">
<path d="M1.1 9C0.7975 9 0.538542 8.90724 0.323125 8.72171C0.107708 8.53618 0 8.31316 0 8.05263V2.84211C0 2.58158 0.107708 2.35855 0.323125 2.17303C0.538542 1.9875 0.7975 1.89474 1.1 1.89474H3.3V0.947368C3.3 0.686842 3.40771 0.463816 3.62313 0.278289C3.83854 0.0927632 4.0975 0 4.4 0H6.6C6.9025 0 7.16146 0.0927632 7.37688 0.278289C7.59229 0.463816 7.7 0.686842 7.7 0.947368V1.89474H9.9C10.2025 1.89474 10.4615 1.9875 10.6769 2.17303C10.8923 2.35855 11 2.58158 11 2.84211V8.05263C11 8.31316 10.8923 8.53618 10.6769 8.72171C10.4615 8.90724 10.2025 9 9.9 9H1.1ZM4.4 1.89474H6.6V0.947368H4.4V1.89474ZM9.9 6.1579H7.15V7.10526H3.85V6.1579H1.1V8.05263H9.9V6.1579ZM4.95 6.1579H6.05V5.21053H4.95V6.1579ZM1.1 5.21053H3.85V4.26316H7.15V5.21053H9.9V2.84211H1.1V5.21053Z" fill="#F5F5F5"/>
</svg>
