<svg width="16" height="16" viewBox="0 0 16 16" fill="none" xmlns="http://www.w3.org/2000/svg">
<mask id="mask0_320_88" style="mask-type:alpha" maskUnits="userSpaceOnUse" x="0" y="0" width="16" height="16">
<rect width="16" height="16" fill="#D9D9D9"/>
</mask>
<g mask="url(#mask0_320_88)">
<path d="M1.33334 13.3334V11.3334H2.66667V4.00002C2.66667 3.63335 2.79722 3.31946 3.05834 3.05835C3.31945 2.79724 3.63334 2.66669 4 2.66669H14V4.00002H4V11.3334H8V13.3334H1.33334ZM10 13.3334C9.81111 13.3334 9.65278 13.2695 9.525 13.1417C9.39722 13.0139 9.33334 12.8556 9.33334 12.6667V6.00002C9.33334 5.81113 9.39722 5.6528 9.525 5.52502C9.65278 5.39724 9.81111 5.33335 10 5.33335H14C14.1889 5.33335 14.3472 5.39724 14.475 5.52502C14.6028 5.6528 14.6667 5.81113 14.6667 6.00002V12.6667C14.6667 12.8556 14.6028 13.0139 14.475 13.1417C14.3472 13.2695 14.1889 13.3334 14 13.3334H10ZM10.6667 11.3334H13.3333V6.66669H10.6667V11.3334Z" fill="#A9DEF9"/>
</g>
</svg>
