<svg width="16" height="16" viewBox="0 0 16 16" fill="none" xmlns="http://www.w3.org/2000/svg">
<mask id="mask0_320_76" style="mask-type:alpha" maskUnits="userSpaceOnUse" x="0" y="0" width="16" height="16">
<rect width="16" height="16" fill="#D9D9D9"/>
</mask>
<g mask="url(#mask0_320_76)">
<path d="M8.93334 14.6L8.00001 13.6666L10.3667 11.3L4.70001 5.6333L2.33334 7.99996L1.40001 7.06663L2.33334 6.09996L1.40001 5.16663L2.80001 3.76663L1.86668 2.79996L2.80001 1.86663L3.76668 2.79996L5.16668 1.39996L6.10001 2.3333L7.06668 1.39996L8.00001 2.3333L5.63334 4.69996L11.3 10.3666L13.6667 7.99996L14.6 8.9333L13.6667 9.89996L14.6 10.8333L13.2 12.2333L14.1333 13.2L13.2 14.1333L12.2333 13.2L10.8333 14.6L9.90001 13.6666L8.93334 14.6Z" fill="#99978A"/>
</g>
</svg>
