<svg width="12" height="11" viewBox="0 0 12 11" fill="none" xmlns="http://www.w3.org/2000/svg">
<path d="M5.2029 0.0136266C2.33387 0.0136266 0 2.15301 0 4.78295C0 7.41289 2.33387 9.55227 5.2029 9.55227C6.07996 9.55227 6.94215 9.3615 7.67056 8.99358C7.7289 9.05794 7.79359 9.11724 7.86381 9.17073L9.35035 10.5334C9.48761 10.675 9.65499 10.7893 9.84222 10.8695C10.0295 10.9496 10.2326 10.9938 10.4391 10.9994C10.6457 11.005 10.8513 10.9718 11.0433 10.9019C11.2354 10.832 11.4098 10.7268 11.5559 10.5929C11.702 10.459 11.8167 10.2991 11.893 10.123C11.9692 9.94699 12.0054 9.75852 11.9993 9.56919C11.9933 9.37986 11.945 9.19366 11.8576 9.02204C11.7702 8.85041 11.6454 8.69698 11.491 8.57115L10.0044 7.20849C9.93201 7.14209 9.85231 7.08272 9.76658 7.03134C10.1679 6.36364 10.4207 5.58692 10.4207 4.76932C10.4207 2.13938 8.08679 0 5.21776 0L5.2029 0.0136266ZM5.2029 1.37629C7.26919 1.37629 8.91925 2.88885 8.91925 4.78295C8.91925 5.68231 8.56248 6.51353 7.93813 7.12673C7.92327 7.14036 7.9084 7.15398 7.89354 7.16761C7.82332 7.22109 7.75863 7.28039 7.70029 7.34476C7.04621 7.88982 6.15428 8.20323 5.18803 8.20323C3.12174 8.20323 1.47168 6.69068 1.47168 4.79658C1.47168 2.90247 3.12174 1.38992 5.18803 1.38992L5.2029 1.37629Z" fill="#F5F5F5"/>
</svg>
