<svg width="16" height="16" viewBox="0 0 16 16" fill="none" xmlns="http://www.w3.org/2000/svg">
<mask id="mask0_320_64" style="mask-type:alpha" maskUnits="userSpaceOnUse" x="0" y="0" width="16" height="16">
<rect width="16" height="16" fill="#D9D9D9"/>
</mask>
<g mask="url(#mask0_320_64)">
<path d="M1.33334 14.6667L4.66667 5.33333L10.6667 11.3333L1.33334 14.6667ZM3.53334 12.4667L8.23334 10.8L5.2 7.76667L3.53334 12.4667ZM9.7 8.36667L9 7.66667L12.7333 3.93333C13.0889 3.57778 13.5167 3.4 14.0167 3.4C14.5167 3.4 14.9444 3.57778 15.3 3.93333L15.7 4.33333L15 5.03333L14.6 4.63333C14.4444 4.47778 14.25 4.4 14.0167 4.4C13.7833 4.4 13.5889 4.47778 13.4333 4.63333L9.7 8.36667ZM7.03334 5.7L6.33334 5L6.73334 4.6C6.88889 4.44444 6.96667 4.25556 6.96667 4.03333C6.96667 3.81111 6.88889 3.62222 6.73334 3.46667L6.3 3.03333L7 2.33333L7.43334 2.76667C7.78889 3.12222 7.96667 3.54444 7.96667 4.03333C7.96667 4.52222 7.78889 4.94444 7.43334 5.3L7.03334 5.7ZM8.36667 7.03333L7.66667 6.33333L10.0667 3.93333C10.2222 3.77778 10.3 3.58333 10.3 3.35C10.3 3.11667 10.2222 2.92222 10.0667 2.76667L9 1.7L9.7 1L10.7667 2.06667C11.1222 2.42222 11.3 2.85 11.3 3.35C11.3 3.85 11.1222 4.27778 10.7667 4.63333L8.36667 7.03333ZM11.0333 9.7L10.3333 9L11.4 7.93333C11.7556 7.57778 12.1833 7.4 12.6833 7.4C13.1833 7.4 13.6111 7.57778 13.9667 7.93333L15.0333 9L14.3333 9.7L13.2667 8.63333C13.1111 8.47778 12.9167 8.4 12.6833 8.4C12.45 8.4 12.2556 8.47778 12.1 8.63333L11.0333 9.7Z" fill="#FF99C8"/>
</g>
</svg>
