<svg width="16" height="16" viewBox="0 0 16 16" fill="none" xmlns="http://www.w3.org/2000/svg">
<mask id="mask0_320_94" style="mask-type:alpha" maskUnits="userSpaceOnUse" x="0" y="0" width="16" height="16">
<rect width="16" height="16" fill="#D9D9D9"/>
</mask>
<g mask="url(#mask0_320_94)">
<path d="M7.93333 11.3333C8.16667 11.3333 8.36389 11.2528 8.525 11.0916C8.68611 10.9305 8.76667 10.7333 8.76667 10.5C8.76667 10.2666 8.68611 10.0694 8.525 9.90831C8.36389 9.7472 8.16667 9.66665 7.93333 9.66665C7.7 9.66665 7.50278 9.7472 7.34167 9.90831C7.18056 10.0694 7.1 10.2666 7.1 10.5C7.1 10.7333 7.18056 10.9305 7.34167 11.0916C7.50278 11.2528 7.7 11.3333 7.93333 11.3333ZM7.33333 8.76665H8.56667C8.56667 8.57776 8.575 8.41665 8.59167 8.28331C8.60833 8.14998 8.64444 8.0222 8.7 7.89998C8.75556 7.77776 8.825 7.66387 8.90833 7.55831C8.99167 7.45276 9.11111 7.3222 9.26667 7.16665C9.65556 6.77776 9.93056 6.45276 10.0917 6.19165C10.2528 5.93054 10.3333 5.63331 10.3333 5.29998C10.3333 4.71109 10.1333 4.23609 9.73333 3.87498C9.33333 3.51387 8.79445 3.33331 8.11667 3.33331C7.50556 3.33331 6.98611 3.48331 6.55833 3.78331C6.13056 4.08331 5.83333 4.49998 5.66667 5.03331L6.76667 5.46665C6.84444 5.16665 7 4.92498 7.23333 4.74165C7.46667 4.55831 7.73889 4.46665 8.05 4.46665C8.35 4.46665 8.6 4.5472 8.8 4.70831C9 4.86942 9.1 5.08331 9.1 5.34998C9.1 5.53887 9.03889 5.73887 8.91667 5.94998C8.79444 6.16109 8.58889 6.39442 8.3 6.64998C8.11111 6.80554 7.95833 6.95831 7.84167 7.10831C7.725 7.25831 7.62778 7.41665 7.55 7.58331C7.47222 7.74998 7.41667 7.92498 7.38333 8.10831C7.35 8.29165 7.33333 8.51109 7.33333 8.76665ZM8 15.3333L6 13.3333H3.33333C2.96667 13.3333 2.65278 13.2028 2.39167 12.9416C2.13056 12.6805 2 12.3666 2 12V2.66665C2 2.29998 2.13056 1.98609 2.39167 1.72498C2.65278 1.46387 2.96667 1.33331 3.33333 1.33331H12.6667C13.0333 1.33331 13.3472 1.46387 13.6083 1.72498C13.8694 1.98609 14 2.29998 14 2.66665V12C14 12.3666 13.8694 12.6805 13.6083 12.9416C13.3472 13.2028 13.0333 13.3333 12.6667 13.3333H10L8 15.3333ZM3.33333 12H6.53333L8 13.4666L9.46667 12H12.6667V2.66665H3.33333V12Z" fill="#D84C8D"/>
</g>
</svg>
